<?xml version="1.0" standalone="no"?>
<!DOCTYPE svg PUBLIC "-//W3C//DTD SVG 20010904//EN"
 "http://www.w3.org/TR/2001/REC-SVG-20010904/DTD/svg10.dtd">
<svg version="1.0" xmlns="http://www.w3.org/2000/svg"
 width="96.000000pt" height="96.000000pt" viewBox="0 0 96.000000 96.000000"
 preserveAspectRatio="xMidYMid meet">
<metadata>
Created by potrace 1.14, written by Peter Selinger 2001-2017
</metadata>
<g transform="translate(0.000000,96.000000) scale(0.100000,-0.100000)"
fill="#000000" stroke="none">
<path d="M482 847 c-19 -20 -22 -35 -22 -115 l0 -92 -32 -1 c-92 -2 -157 -29
-222 -92 l-47 -45 2 65 c4 114 72 214 156 228 58 10 63 13 63 34 0 43 -89 37
-161 -12 -18 -12 -46 -40 -61 -62 -49 -70 -58 -121 -58 -314 0 -164 2 -179 24
-227 26 -56 74 -98 133 -120 28 -10 106 -13 294 -14 248 0 257 1 284 22 24 19
27 26 22 62 -6 41 -15 52 -97 115 -36 27 -65 80 -74 136 -7 40 -6 41 31 54 58
20 98 55 122 105 17 38 21 64 21 150 0 101 -1 105 -26 125 -38 30 -65 26 -104
-14 -26 -27 -42 -35 -70 -35 -28 0 -44 8 -70 35 -40 42 -77 45 -108 12z m83
-72 c28 -33 33 -35 95 -35 62 0 66 2 94 35 16 19 33 35 38 35 5 0 8 -43 7 -95
-1 -79 -5 -101 -23 -128 -61 -91 -189 -84 -238 14 -18 35 -26 209 -10 209 4 0
21 -16 37 -35z m-60 -234 c17 -22 49 -48 72 -60 36 -17 42 -25 48 -63 12 -79
48 -141 114 -198 33 -29 61 -59 61 -66 0 -11 -24 -14 -110 -14 -105 0 -110 1
-110 21 0 26 -35 76 -58 83 -10 4 -24 22 -31 41 -18 50 -59 95 -106 116 -67
31 -131 22 -123 -17 2 -14 16 -21 51 -26 27 -3 59 -13 71 -22 26 -16 56 -73
56 -104 0 -14 10 -24 34 -32 31 -10 46 -26 46 -51 0 -5 -50 -9 -112 -9 -131 0
-177 16 -218 77 -33 49 -34 147 -2 209 49 96 132 147 242 153 42 2 48 -1 75
-38z"/>
<path d="M573 693 c-18 -7 -16 -40 2 -47 22 -8 45 4 45 24 0 14 -23 34 -33 29
-1 0 -8 -3 -14 -6z"/>
<path d="M711 691 c-14 -9 -7 -51 9 -51 22 0 40 14 40 30 0 10 -7 21 -16 24
-19 7 -16 8 -33 -3z"/>
</g>
</svg>
